<?xml version="1.0" standalone="no"?>
<!DOCTYPE svg PUBLIC "-//W3C//DTD SVG 20010904//EN"
 "http://www.w3.org/TR/2001/REC-SVG-20010904/DTD/svg10.dtd">
<svg version="1.0" xmlns="http://www.w3.org/2000/svg"
 width="260.000000pt" height="260.000000pt" viewBox="0 0 260.000000 260.000000"
 preserveAspectRatio="xMidYMid meet">
<metadata>
Created by potrace 1.11, written by Peter Selinger 2001-2013
</metadata>
<g transform="translate(0.000000,260.000000) scale(0.100000,-0.100000)"
fill="#000000" stroke="none">
<path d="M895 2240 c-27 -5 -90 -16 -140 -25 -103 -18 -209 -32 -310 -40 -96
-8 -115 -13 -115 -29 0 -18 -19 -25 -88 -32 -32 -4 -63 -11 -70 -17 -9 -7 -12
-184 -12 -822 0 -734 2 -813 16 -819 9 -3 19 -4 24 -1 8 5 368 22 693 32 l177
5 40 -27 c57 -40 106 -54 185 -55 86 0 126 11 190 51 l50 32 155 -6 c585 -23
681 -27 702 -32 15 -4 29 -1 36 8 9 11 11 214 10 828 l-3 814 -65 7 c-51 6
-69 12 -85 31 -17 21 -32 25 -110 31 -109 9 -190 19 -315 41 -188 32 -236 37
-335 32 -114 -5 -158 -24 -201 -86 -13 -19 -24 -29 -24 -20 0 17 -60 79 -77
79 -6 0 -13 5 -15 12 -5 15 -237 21 -313 8z m242 -11 c46 -8 71 -19 94 -40
l31 -29 -7 -132 c-3 -73 -7 -166 -8 -207 -1 -41 -3 -67 -5 -58 -2 9 -8 18 -13
18 -13 2 -22 5 -40 13 -9 4 -32 8 -51 9 -20 1 -42 8 -50 14 -10 9 -18 9 -25 2
-6 -6 -56 -11 -112 -12 -55 -1 -101 -6 -101 -11 0 -4 -11 -5 -25 -2 -17 4 -31
1 -41 -9 -9 -8 -32 -15 -52 -15 -20 0 -44 -5 -52 -10 -13 -8 -13 -12 3 -27 13
-13 20 -15 25 -6 4 7 16 12 27 11 50 -1 171 15 176 24 4 6 49 10 105 9 164 -1
177 -3 202 -33 23 -28 25 -53 7 -163 -3 -22 -8 -92 -9 -155 -2 -63 -4 -136 -5
-161 -1 -48 -21 -70 -45 -50 -10 8 -52 16 -66 12 -8 -2 -204 -3 -215 -1 -25 5
-71 -3 -77 -14 -6 -8 -8 -8 -8 0 0 7 -11 9 -25 6 -14 -2 -25 -8 -25 -13 0 -5
-7 -9 -15 -9 -9 0 -15 -9 -15 -25 0 -20 5 -25 26 -25 14 0 33 4 42 9 9 5 52
11 96 14 50 3 82 10 88 18 7 11 11 11 15 2 6 -15 33 -17 33 -3 0 14 77 13 86
-1 3 -6 17 -8 30 -5 19 5 24 2 24 -12 0 -13 7 -18 23 -18 18 1 22 -5 25 -34 3
-41 -26 -67 -56 -51 -9 5 -36 8 -59 6 -24 -1 -43 2 -43 6 0 5 -7 9 -15 9 -9 0
-15 -9 -15 -24 0 -22 4 -23 59 -23 39 0 69 -6 85 -16 14 -10 30 -17 36 -17 18
0 4 -179 -15 -198 -3 -3 -35 0 -72 6 -68 11 -148 6 -398 -27 -146 -19 -310
-34 -330 -30 -20 4 -20 16 -28 693 -5 378 -6 694 -3 702 4 10 25 14 73 15 81
1 184 12 313 34 103 18 270 42 309 44 13 0 53 -4 88 -10z m500 1 c43 -5 101
-14 128 -20 124 -23 226 -39 300 -46 44 -4 83 -8 88 -10 4 -1 27 -2 51 -3 42
-1 45 -3 56 -37 8 -23 10 -67 6 -122 -3 -48 -6 -190 -6 -317 -1 -126 -4 -268
-7 -313 -6 -82 -7 -83 -22 -58 -15 25 -19 26 -83 22 -46 -3 -73 1 -87 10 -14
10 -22 11 -27 3 -4 -8 -9 -8 -13 -1 -13 21 -32 -4 -25 -31 4 -20 13 -27 30
-27 13 0 24 6 24 13 0 9 2 9 9 -1 5 -9 34 -15 82 -16 41 -2 82 -4 92 -5 16 -1
17 -21 17 -262 l0 -262 -62 7 c-35 4 -125 11 -202 16 -76 6 -157 15 -180 22
-23 6 -114 12 -212 12 l-170 1 -1 30 c0 17 -4 60 -8 98 -6 47 -4 67 4 67 13 0
51 31 51 42 0 5 -19 8 -41 8 -33 0 -39 3 -30 13 7 9 8 24 2 44 -7 25 -5 33 11
44 10 8 22 14 26 15 4 0 15 4 24 8 10 5 36 9 58 9 34 2 40 5 40 25 0 25 -12
28 -32 10 -12 -12 -121 -19 -131 -8 -3 3 -7 23 -8 44 -3 31 0 41 16 50 11 6
22 14 25 17 3 3 13 8 23 12 9 3 17 16 17 28 0 17 -3 19 -14 10 -10 -9 -16 -9
-21 -1 -5 8 -11 8 -21 -1 -19 -15 -25 -8 -28 31 -3 37 50 100 83 100 12 0 21
5 21 10 0 6 8 5 20 -2 16 -11 23 -10 37 6 17 18 15 18 -74 13 l-93 -6 0 33 c0
26 7 39 34 60 19 14 39 26 45 26 6 0 11 7 11 15 0 17 -10 18 -60 6 -35 -8 -36
-7 -38 21 -3 38 14 68 39 68 23 0 66 36 55 47 -4 4 -19 3 -34 -3 -15 -5 -37
-8 -49 -6 -34 5 -31 54 5 81 15 12 32 24 37 28 6 5 25 9 44 11 37 3 67 21 54
33 -11 10 -127 -8 -131 -20 -2 -6 -10 -11 -18 -11 -25 0 -17 64 11 94 35 37
33 90 -2 55 -20 -20 -33 1 -33 56 0 49 3 56 33 79 52 40 133 51 254 36z"/>
<path d="M853 2072 c-17 -3 -23 -10 -23 -29 0 -24 2 -25 33 -18 17 4 48 7 67
8 27 2 36 7 38 23 3 18 -2 20 -45 20 -26 0 -58 -2 -70 -4z"/>
<path d="M1000 2066 c0 -21 21 -31 31 -15 14 22 11 29 -11 29 -11 0 -20 -6
-20 -14z"/>
<path d="M1050 2065 c0 -9 9 -15 25 -15 14 0 25 -5 25 -10 0 -7 6 -7 20 0 14
7 20 7 20 0 0 -14 37 -13 43 3 3 6 6 0 6 -15 1 -33 21 -36 39 -7 7 12 12 22
10 22 -2 1 -19 10 -38 19 -39 19 -88 21 -107 6 -9 -7 -13 -7 -13 1 0 6 -7 11
-15 11 -8 0 -15 -7 -15 -15z"/>
<path d="M720 2024 c0 -20 5 -23 33 -21 38 3 57 13 57 32 0 9 -14 13 -45 13
-40 -1 -45 -4 -45 -24z"/>
<path d="M608 2023 c-16 -2 -28 -11 -28 -19 0 -20 37 -18 49 4 10 16 12 16 25
-2 16 -19 36 -14 36 10 0 14 -22 16 -82 7z"/>
<path d="M417 2013 c-4 -3 -7 -15 -7 -25 0 -20 26 -25 33 -5 4 9 8 9 15 -2 8
-12 20 -13 59 -5 60 11 73 40 18 40 -19 0 -35 -4 -35 -9 0 -5 -7 -4 -16 4 -13
10 -17 10 -26 -2 -7 -11 -11 -11 -15 -1 -5 13 -16 16 -26 5z"/>
<path d="M960 1953 c0 -8 -14 -13 -38 -13 -39 0 -62 -14 -62 -38 0 -11 7 -12
28 -7 22 6 69 11 125 15 4 0 7 7 7 15 0 14 -13 20 -34 16 -5 -1 -13 4 -17 11
-7 10 -9 10 -9 1z"/>
<path d="M1030 1934 c0 -13 5 -24 10 -24 6 0 10 8 10 18 1 16 1 16 11 0 6 -11
22 -18 39 -18 16 0 32 -4 35 -10 3 -5 20 -10 37 -10 l30 0 -23 25 c-13 13 -31
25 -40 25 -9 0 -18 3 -22 6 -3 4 -24 8 -46 9 -37 3 -41 1 -41 -21z"/>
<path d="M690 1890 c0 -20 5 -30 15 -30 10 0 15 10 15 28 l1 27 13 -24 c7 -13
16 -19 19 -14 3 5 20 8 37 5 29 -4 64 13 55 27 -2 4 -38 8 -79 9 l-76 1 0 -29z"/>
<path d="M546 1883 c-1 -2 -31 -4 -67 -5 -56 -3 -64 -5 -64 -23 0 -16 6 -20
34 -18 18 1 38 7 42 15 7 11 9 11 9 -1 0 -10 8 -11 33 -6 17 4 47 7 65 6 26 0
32 4 30 17 -2 12 -14 17 -41 17 -21 0 -40 -1 -41 -2z"/>
<path d="M607 1763 c-13 -12 -7 -43 8 -43 9 0 15 9 15 25 0 24 -10 32 -23 18z"/>
<path d="M640 1740 c0 -11 5 -20 10 -20 6 0 10 9 10 20 0 11 -4 20 -10 20 -5
0 -10 -9 -10 -20z"/>
<path d="M417 1733 c11 -33 14 -34 33 -11 15 18 19 19 20 7 0 -19 61 -24 92
-8 31 17 13 23 -72 26 -72 3 -79 2 -73 -14z"/>
<path d="M1133 1665 c2 -26 6 -30 30 -30 15 1 27 -5 27 -12 0 -7 5 -13 10 -13
6 0 10 11 10 24 0 24 -16 36 -50 36 -10 0 -21 6 -24 13 -3 6 -4 -1 -3 -18z"/>
<path d="M933 1672 c-40 -3 -43 -5 -43 -33 0 -32 6 -35 33 -15 10 8 34 12 55
10 57 -6 122 6 122 22 0 8 -3 14 -7 15 -22 3 -123 4 -160 1z"/>
<path d="M823 1655 c-16 -11 -22 -12 -26 -2 -3 9 -9 9 -28 -2 -19 -11 -49 -16
-121 -21 -5 0 -8 -9 -8 -19 0 -17 6 -19 51 -15 28 2 56 7 62 11 6 3 32 5 58 4
40 -2 48 1 54 18 6 21 0 41 -13 41 -4 0 -17 -7 -29 -15z"/>
<path d="M420 1604 c0 -31 16 -39 25 -11 6 17 8 19 12 6 5 -21 83 -24 109 -4
21 16 14 18 -43 15 -18 -1 -33 3 -33 8 0 6 -16 10 -35 9 -29 -1 -35 -5 -35
-23z"/>
<path d="M607 1623 c-13 -12 -7 -33 8 -33 8 0 15 9 15 20 0 20 -11 26 -23 13z"/>
<path d="M920 1520 c0 -16 5 -30 10 -30 6 0 10 5 10 11 0 7 4 8 13 2 6 -5 23
-8 37 -7 61 4 128 4 165 -1 22 -3 33 -2 25 2 -8 3 -21 15 -29 25 -7 11 -20 17
-28 14 -8 -3 -20 -3 -26 1 -20 12 -61 12 -69 0 -6 -9 -8 -9 -8 1 0 15 -27 16
-32 1 -3 -9 -9 -9 -25 0 -34 17 -43 13 -43 -19z"/>
<path d="M859 1525 c-3 -2 -23 -5 -44 -6 -22 -1 -45 -6 -51 -11 -11 -8 -91
-17 -157 -18 -21 -1 -28 -5 -25 -18 2 -12 18 -19 53 -24 27 -4 52 -3 55 1 3 4
12 9 20 9 8 1 29 3 45 5 17 2 40 5 53 5 14 1 22 9 22 20 1 16 1 16 14 0 22
-30 46 -16 46 28 0 13 -21 20 -31 9z"/>
<path d="M410 1463 c0 -23 2 -24 68 -21 61 3 67 5 70 26 2 15 -2 22 -12 22 -9
0 -16 -4 -16 -10 0 -13 -37 -13 -45 -1 -3 5 -19 9 -35 9 -25 -1 -30 -5 -30
-25z"/>
<path d="M916 1392 c-3 -5 -24 -12 -46 -16 -43 -7 -46 -12 -26 -38 10 -14 19
-16 42 -9 16 4 35 6 42 4 6 -3 12 3 12 14 1 16 2 16 13 3 16 -20 52 -23 67 -5
19 23 6 40 -31 41 -19 0 -41 4 -50 8 -10 4 -20 3 -23 -2z"/>
<path d="M1062 1367 c2 -14 10 -22 23 -22 11 -1 25 -4 32 -8 6 -4 18 -4 26 -1
8 3 18 1 22 -5 3 -6 15 -11 26 -11 13 0 19 7 19 24 0 29 -13 34 -94 41 -54 4
-57 3 -54 -18z"/>
<path d="M693 1353 c-18 -2 -33 -8 -33 -13 0 -5 -12 -8 -27 -7 -22 2 -28 -2
-28 -18 0 -17 6 -19 35 -17 19 2 38 9 42 15 6 9 8 9 8 1 0 -12 48 -16 65 -6 5
3 21 6 35 6 18 1 25 6 25 21 0 17 -7 20 -45 21 -25 1 -60 -1 -77 -3z"/>
<path d="M417 1334 c-7 -8 5 -54 14 -54 5 0 9 9 9 20 0 11 5 20 10 20 6 0 10
-8 10 -17 0 -24 79 -27 97 -4 19 25 15 32 -19 31 -18 -1 -52 1 -75 4 -22 2
-43 2 -46 0z"/>
<path d="M658 1179 c-2 -7 -46 -11 -126 -12 -119 -1 -122 -1 -122 -23 0 -27
25 -38 44 -18 8 8 17 10 20 5 3 -4 23 -5 45 -1 28 5 49 3 71 -8 23 -11 34 -12
43 -3 6 6 21 11 34 11 19 0 23 5 23 30 0 29 -24 43 -32 19z"/>
<path d="M930 1069 c-19 -4 -41 -6 -48 -4 -21 7 -52 -14 -52 -35 0 -27 19 -35
35 -14 8 11 15 14 15 8 0 -6 13 -9 33 -7 17 2 42 4 55 5 18 0 22 6 22 29 0 31
-4 32 -60 18z"/>
<path d="M720 1039 c0 -6 -7 -8 -16 -5 -21 8 -44 -11 -44 -36 0 -16 5 -19 23
-14 12 3 30 6 40 6 9 0 17 7 17 16 0 14 1 14 16 0 8 -9 22 -16 29 -16 17 0 34
30 28 48 -6 15 -93 17 -93 1z"/>
<path d="M412 1003 c4 -39 28 -42 28 -4 0 21 -5 31 -16 31 -11 0 -14 -8 -12
-27z"/>
<path d="M453 1009 c4 -13 7 -28 7 -34 0 -5 5 -3 11 5 8 11 12 12 16 3 6 -15
63 -18 63 -3 0 6 7 10 15 10 8 0 15 -4 15 -10 0 -5 7 -10 15 -10 8 0 15 7 15
15 0 8 5 15 10 15 6 0 10 5 10 11 0 6 -25 9 -67 8 -38 -1 -79 1 -92 5 -22 8
-23 6 -18 -15z"/>
<path d="M1488 2082 c-44 -3 -48 -5 -48 -30 0 -20 3 -23 12 -14 15 15 164 16
173 2 5 -8 24 -8 53 -1 1 1 -5 9 -15 20 -19 20 -87 29 -175 23z"/>
<path d="M1717 2058 c-4 -12 -5 -24 -3 -26 2 -2 28 -5 57 -8 30 -2 56 -9 57
-14 2 -6 15 -10 28 -10 19 0 24 5 24 25 0 22 -4 25 -42 27 -24 1 -53 1 -65 0
-14 0 -23 5 -23 14 0 22 -27 16 -33 -8z"/>
<path d="M1907 2038 c-10 -31 5 -48 42 -46 20 0 47 -4 59 -11 14 -7 22 -8 22
-1 0 16 18 12 22 -5 3 -14 5 -14 26 0 38 27 27 40 -35 43 -32 1 -67 9 -79 17
-17 11 -24 12 -27 2 -4 -9 -6 -9 -6 1 -1 6 -5 12 -10 12 -5 0 -11 -6 -14 -12z"/>
<path d="M1556 1943 c-10 -10 -7 -35 4 -28 5 3 25 2 44 -3 36 -11 61 -2 54 19
-4 13 -90 23 -102 12z"/>
<path d="M1690 1913 c1 -27 1 -27 15 -9 12 16 15 17 15 4 0 -12 15 -18 55 -23
30 -3 55 -10 55 -15 0 -4 25 -7 56 -6 30 1 58 -2 60 -6 9 -14 24 -8 24 9 0 14
3 13 16 -5 21 -31 34 -27 34 9 0 28 -2 31 -25 25 -14 -4 -25 -3 -25 1 0 5 -10
8 -22 9 -52 2 -172 16 -180 20 -5 3 -24 8 -43 10 -33 4 -35 2 -35 -23z"/>
<path d="M2050 1872 c0 -29 5 -31 73 -34 27 -1 67 26 55 37 -3 3 -26 6 -51 7
-26 1 -47 6 -47 10 0 4 -7 8 -15 8 -10 0 -15 -10 -15 -28z"/>
<path d="M1537 1814 c-14 -15 -6 -34 14 -34 14 0 19 5 17 17 -3 18 -20 27 -31
17z"/>
<path d="M1608 1813 c-19 -3 -28 -10 -28 -23 0 -15 7 -19 40 -18 22 0 46 -4
53 -9 19 -16 97 -15 97 0 0 24 -24 37 -66 37 -24 0 -46 5 -49 10 -3 6 -9 9
-13 9 -4 -1 -19 -4 -34 -6z"/>
<path d="M1495 1790 c3 -5 10 -10 16 -10 5 0 9 5 9 10 0 6 -7 10 -16 10 -8 0
-12 -4 -9 -10z"/>
<path d="M1790 1766 c0 -18 28 -35 56 -35 10 0 47 -3 82 -7 42 -4 62 -2 62 5
0 6 -5 11 -11 11 -7 0 -17 6 -23 14 -7 8 -41 16 -88 20 -66 6 -78 4 -78 -8z"/>
<path d="M2017 1764 c-9 -9 4 -42 19 -48 8 -3 14 -1 14 5 0 6 6 4 14 -3 8 -8
34 -14 62 -13 40 0 49 4 52 19 3 14 0 17 -12 13 -8 -3 -28 -2 -43 3 -15 5 -39
11 -53 12 -14 2 -30 7 -36 10 -6 4 -14 5 -17 2z"/>
<path d="M1625 1671 c-2 -2 -31 -3 -65 -2 -47 1 -60 -2 -60 -14 0 -8 6 -15 13
-15 6 -1 54 -3 106 -5 64 -2 96 -7 102 -17 7 -10 11 -10 25 4 14 14 15 20 5
32 -7 8 -20 15 -29 15 -9 0 -34 1 -55 3 -21 2 -40 2 -42 -1z"/>
<path d="M1782 1638 c3 -25 16 -28 158 -47 36 -4 73 -11 83 -16 10 -4 17 -3
17 4 0 6 -4 11 -9 11 -5 0 -11 8 -14 19 -4 15 -18 19 -86 25 -44 4 -81 12 -81
17 0 5 -16 9 -36 9 -31 0 -35 -3 -32 -22z"/>
<path d="M2078 1616 c-36 -27 -12 -48 46 -41 17 2 37 0 46 -5 11 -6 21 -5 28
2 16 16 -4 38 -34 38 -13 0 -24 5 -24 10 0 14 -42 12 -62 -4z"/>
<path d="M1660 1541 c0 -6 -19 -11 -42 -11 -37 0 -41 -2 -27 -15 13 -13 46
-21 136 -30 18 -2 37 -6 42 -9 5 -3 12 1 15 9 7 19 -25 48 -56 50 -13 1 -33 5
-45 9 -15 4 -23 3 -23 -3z"/>
<path d="M1807 1513 c-3 -5 -1 -18 4 -30 9 -25 38 -30 57 -11 8 8 12 8 12 1 0
-14 44 -26 95 -25 22 0 50 -6 62 -14 12 -8 25 -14 28 -14 10 0 5 22 -9 36 -8
7 -16 18 -18 23 -1 5 -37 11 -78 14 -41 3 -76 10 -78 16 -4 12 -68 15 -75 4z"/>
<path d="M1515 1380 c-4 -6 -11 -8 -16 -5 -5 4 -9 -4 -9 -16 0 -16 3 -19 13
-11 6 6 17 10 22 11 13 0 19 31 6 31 -5 0 -13 -5 -16 -10z"/>
<path d="M1556 1358 c9 -33 12 -34 29 -12 21 27 18 34 -11 34 -22 0 -24 -3
-18 -22z"/>
<path d="M1627 1367 c-9 -25 5 -37 44 -37 21 0 39 4 39 9 0 5 3 16 6 24 4 11
-5 15 -39 15 -27 1 -47 -4 -50 -11z"/>
<path d="M1800 1370 c0 -8 -11 -11 -30 -8 -32 5 -36 -2 -19 -33 9 -17 13 -18
25 -8 11 9 18 10 22 2 4 -6 30 -14 59 -17 43 -5 52 -3 56 12 3 10 5 6 6 -10 1
-21 6 -28 21 -28 11 0 20 3 20 8 0 4 3 18 7 31 4 17 3 22 -6 17 -6 -4 -22 -1
-34 7 -12 7 -38 16 -57 20 -19 3 -43 8 -52 12 -11 5 -18 3 -18 -5z"/>
<path d="M1600 1206 c0 -20 1 -36 3 -36 1 0 16 4 34 9 18 5 33 6 35 1 2 -4 18
-11 36 -15 24 -5 33 -3 38 9 9 23 -15 48 -38 40 -10 -3 -30 1 -43 10 -17 12
-25 12 -28 3 -3 -9 -8 -9 -20 2 -15 12 -17 10 -17 -23z"/>
<path d="M1777 1203 c-12 -11 -8 -40 8 -53 12 -10 18 -10 30 0 10 9 15 9 15 1
0 -18 18 -13 23 7 4 16 5 16 6 0 1 -21 46 -25 54 -5 3 6 6 2 6 -10 1 -32 17
-37 35 -11 18 25 21 53 6 43 -5 -3 -19 0 -31 8 -13 10 -36 13 -64 11 -24 -2
-46 0 -50 6 -7 11 -28 13 -38 3z"/>
<path d="M1997 1178 c-2 -7 -1 -23 4 -35 6 -15 15 -21 33 -19 15 2 44 0 66 -4
26 -5 41 -3 45 4 3 8 7 7 11 -1 3 -7 12 -13 20 -13 8 0 14 -4 14 -10 0 -15 19
-12 36 4 17 18 19 56 2 57 -7 1 -35 2 -61 3 -30 1 -51 6 -57 16 -8 13 -10 12
-10 -2 0 -22 -10 -23 -36 -4 -13 10 -23 11 -31 4 -9 -7 -13 -7 -13 1 0 15 -17
14 -23 -1z"/>
<path d="M1660 1078 c0 -17 33 -67 41 -63 12 8 12 55 0 55 -5 0 -16 3 -25 6
-9 3 -16 4 -16 2z"/>
<path d="M1552 1054 c-6 -7 -8 -15 -5 -18 11 -11 61 -6 66 7 4 9 8 8 16 -3 8
-11 13 -12 22 -3 6 6 8 16 5 22 -9 14 -90 10 -104 -5z"/>
<path d="M1758 1059 c-21 -12 -24 -48 -5 -53 31 -10 85 -13 96 -6 22 13 3 50
-25 50 -13 0 -24 5 -24 10 0 13 -20 12 -42 -1z"/>
<path d="M1490 1046 c0 -9 5 -16 10 -16 6 0 10 4 10 9 0 6 -4 13 -10 16 -5 3
-10 -1 -10 -9z"/>
<path d="M1880 1021 c0 -24 5 -29 31 -35 47 -9 49 -8 49 19 0 20 -5 25 -25 25
-14 0 -25 5 -25 10 0 6 -7 10 -15 10 -10 0 -15 -10 -15 -29z"/>
</g>
</svg>
